{"buffers":[{"uri":"output.bin","byteLength":552104}],"asset":{"version":"2.0","generator":"gltfpack 0.14"},"bufferViews":[{"buffer":0,"byteOffset":0,"byteLength":172272,"byteStride":12,"target":34962},{"buffer":0,"byteOffset":172272,"byteLength":172272,"byteStride":12,"target":34962},{"buffer":0,"byteOffset":344544,"byteLength":114848,"byteStride":8,"target":34962},{"buffer":0,"byteOffset":459392,"byteLength":92712,"target":34963}],"accessors":[{"bufferView":0,"byteOffset":0,"componentType":5126,"count":14356,"type":"VEC3"},{"bufferView":1,"byteOffset":0,"componentType":5126,"count":14356,"type":"VEC3","min":[-0.947458565,-0.900974095,-1.18715513],"max":[0.942495406,0.900995135,0.81284517]},{"bufferView":2,"byteOffset":0,"componentType":5126,"count":14356,"type":"VEC2"},{"bufferView":3,"byteOffset":0,"componentType":5123,"count":46356,"type":"SCALAR"}],"images":[{"uri":"Default_albedo.jpg"},{"uri":"Default_metalRoughness.jpg"},{"uri":"Default_emissive.jpg"},{"uri":"Default_AO.jpg"},{"uri":"Default_normal.jpg"}],"textures":[{"source":0},{"source":1},{"source":2},{"source":3},{"source":4}],"materials":[{"name":"Material_MR","pbrMetallicRoughness":{"baseColorTexture":{"index":0,"texCoord":0},"metallicRoughnessTexture":{"index":1,"texCoord":0}},"normalTexture":{"index":4,"texCoord":0},"occlusionTexture":{"index":3,"texCoord":0},"emissiveTexture":{"index":2,"texCoord":0},"emissiveFactor":[1,1,1]}],"meshes":[{"primitives":[{"attributes":{"NORMAL":0,"POSITION":1,"TEXCOORD_0":2},"mode":4,"indices":3,"material":0}]}],"nodes":[{"mesh":0}],"scenes":[{"nodes":[0]}],"scene":0}