{"buffers":[{"uri":"out.bin","byteLength":2257320}],"asset":{"version":"2.0","generator":"gltfpack 0.14","extras":{"author":"Emre Çınar (https://sketchfab.com/emrecnarr)","license":"CC-BY-4.0 (http://creativecommons.org/licenses/by/4.0/)","source":"https://sketchfab.com/3d-models/bac-mono-799dba7559e64b4c85764590c7197761","title":"Bac mono"}},"bufferViews":[{"buffer":0,"byteOffset":0,"byteLength":912384,"byteStride":12,"target":34962},{"buffer":0,"byteOffset":912384,"byteLength":912384,"byteStride":12,"target":34962},{"buffer":0,"byteOffset":1824768,"byteLength":432552,"target":34963}],"accessors":[{"bufferView":0,"byteOffset":0,"componentType":5126,"count":20283,"type":"VEC3"},{"bufferView":1,"byteOffset":0,"componentType":5126,"count":20283,"type":"VEC3","min":[0.0386750922,0.146159738,-4.67324066],"max":[2.20514297,1.31904602,-0.0692522079]},{"bufferView":2,"byteOffset":0,"componentType":5123,"count":58659,"type":"SCALAR"},{"bufferView":0,"byteOffset":243396,"componentType":5126,"count":65,"type":"VEC3"},{"bufferView":1,"byteOffset":243396,"componentType":5126,"count":65,"type":"VEC3","min":[0.418039858,0.216578305,-3.48564696],"max":[1.82451534,0.827893078,-2.46020365]},{"bufferView":2,"byteOffset":117318,"componentType":5123,"count":147,"type":"SCALAR"},{"bufferView":0,"byteOffset":244176,"componentType":5126,"count":21630,"type":"VEC3"},{"bufferView":1,"byteOffset":244176,"componentType":5126,"count":21630,"type":"VEC3","min":[0.106663339,0.150617048,-4.60802698],"max":[2.13509512,1.27072597,-0.0861717388]},{"bufferView":2,"byteOffset":117612,"componentType":5123,"count":53127,"type":"SCALAR"},{"bufferView":0,"byteOffset":503736,"componentType":5126,"count":81,"type":"VEC3"},{"bufferView":1,"byteOffset":503736,"componentType":5126,"count":81,"type":"VEC3","min":[0.139031217,0.766838074,-4.50004148],"max":[2.10478711,1.26741624,-3.04944944]},{"bufferView":2,"byteOffset":223866,"componentType":5123,"count":285,"type":"SCALAR"},{"bufferView":0,"byteOffset":504708,"componentType":5126,"count":2495,"type":"VEC3"},{"bufferView":1,"byteOffset":504708,"componentType":5126,"count":2495,"type":"VEC3","min":[0.216809705,0.181792989,-4.37196541],"max":[2.02700853,1.25959361,-0.0721369684]},{"bufferView":2,"byteOffset":224436,"componentType":5123,"count":6990,"type":"SCALAR"},{"bufferView":0,"byteOffset":534648,"componentType":5126,"count":228,"type":"VEC3"},{"bufferView":1,"byteOffset":534648,"componentType":5126,"count":228,"type":"VEC3","min":[0.189613432,0.540055633,-4.4711194],"max":[2.05420494,0.840763032,-0.522279382]},{"bufferView":2,"byteOffset":238416,"componentType":5123,"count":711,"type":"SCALAR"},{"bufferView":0,"byteOffset":537384,"componentType":5126,"count":140,"type":"VEC3"},{"bufferView":1,"byteOffset":537384,"componentType":5126,"count":140,"type":"VEC3","min":[1.09436977,0.332988828,-4.62156487],"max":[1.22550237,1.26813149,-3.04619265]},{"bufferView":2,"byteOffset":239838,"componentType":5123,"count":372,"type":"SCALAR"},{"bufferView":0,"byteOffset":539064,"componentType":5126,"count":13362,"type":"VEC3"},{"bufferView":1,"byteOffset":539064,"componentType":5126,"count":13362,"type":"VEC3","min":[0.440797865,0.157749638,-4.68290043],"max":[1.80302036,0.969242454,-2.61816263]},{"bufferView":2,"byteOffset":240582,"componentType":5123,"count":31080,"type":"SCALAR"},{"bufferView":0,"byteOffset":699408,"componentType":5126,"count":256,"type":"VEC3"},{"bufferView":1,"byteOffset":699408,"componentType":5126,"count":256,"type":"VEC3","min":[0.271662623,0.476473033,-4.68350267],"max":[1.97312486,0.832920194,-0.493497223]},{"bufferView":2,"byteOffset":302742,"componentType":5123,"count":849,"type":"SCALAR"},{"bufferView":0,"byteOffset":702480,"componentType":5126,"count":714,"type":"VEC3"},{"bufferView":1,"byteOffset":702480,"componentType":5126,"count":714,"type":"VEC3","min":[0.829939842,0.302882493,-4.69658947],"max":[1.41387844,0.770379663,-1.20625818]},{"bufferView":2,"byteOffset":304440,"componentType":5123,"count":1797,"type":"SCALAR"},{"bufferView":0,"byteOffset":711048,"componentType":5126,"count":2479,"type":"VEC3"},{"bufferView":1,"byteOffset":711048,"componentType":5126,"count":2479,"type":"VEC3","min":[0.786767006,0.163398221,-2.92253995],"max":[1.45705128,0.759120762,-1.02090168]},{"bufferView":2,"byteOffset":308034,"componentType":5123,"count":5595,"type":"SCALAR"},{"bufferView":0,"byteOffset":740796,"componentType":5126,"count":24,"type":"VEC3"},{"bufferView":1,"byteOffset":740796,"componentType":5126,"count":24,"type":"VEC3","min":[1.03894234,0.934969962,-2.85980988],"max":[1.17984724,1.00480783,-2.8552866]},{"bufferView":2,"byteOffset":319224,"componentType":5123,"count":54,"type":"SCALAR"},{"bufferView":0,"byteOffset":741084,"componentType":5126,"count":2396,"type":"VEC3"},{"bufferView":1,"byteOffset":741084,"componentType":5126,"count":2396,"type":"VEC3","min":[0.950905383,0.621872902,-2.15711689],"max":[1.29278493,0.87861377,-2.02606821]},{"bufferView":2,"byteOffset":319332,"componentType":5123,"count":6564,"type":"SCALAR"},{"bufferView":0,"byteOffset":769836,"componentType":5126,"count":25,"type":"VEC3"},{"bufferView":1,"byteOffset":769836,"componentType":5126,"count":25,"type":"VEC3","min":[0.401172131,0.770194173,-4.44967699],"max":[0.469970614,0.840763032,-4.41378403]},{"bufferView":2,"byteOffset":332460,"componentType":5123,"count":72,"type":"SCALAR"},{"bufferView":0,"byteOffset":770136,"componentType":5126,"count":126,"type":"VEC3"},{"bufferView":1,"byteOffset":770136,"componentType":5126,"count":126,"type":"VEC3","min":[1.01831579,0.332988828,-4.62156487],"max":[1.84264612,0.840763032,-4.41378403]},{"bufferView":2,"byteOffset":332604,"componentType":5123,"count":366,"type":"SCALAR"},{"bufferView":0,"byteOffset":771648,"componentType":5126,"count":109,"type":"VEC3"},{"bufferView":1,"byteOffset":771648,"componentType":5126,"count":109,"type":"VEC3","min":[0.289306402,0.497409314,-4.4787693],"max":[1.84798384,0.845357716,-0.483121246]},{"bufferView":2,"byteOffset":333336,"componentType":5123,"count":438,"type":"SCALAR"},{"bufferView":0,"byteOffset":772956,"componentType":5126,"count":64,"type":"VEC3"},{"bufferView":1,"byteOffset":772956,"componentType":5126,"count":64,"type":"VEC3","min":[0.387924075,0.902036667,-1.76121926],"max":[1.85589421,0.983475089,-1.72899663]},{"bufferView":2,"byteOffset":334212,"componentType":5123,"count":204,"type":"SCALAR"},{"bufferView":0,"byteOffset":773724,"componentType":5126,"count":384,"type":"VEC3"},{"bufferView":1,"byteOffset":773724,"componentType":5126,"count":384,"type":"VEC3","min":[0.168206811,0.230775073,-4.23814201],"max":[2.07355165,0.579580963,-0.917117655]},{"bufferView":2,"byteOffset":334620,"componentType":5123,"count":1104,"type":"SCALAR"},{"bufferView":0,"byteOffset":778332,"componentType":5126,"count":1520,"type":"VEC3"},{"bufferView":1,"byteOffset":778332,"componentType":5126,"count":1520,"type":"VEC3","min":[0.0559807532,0.115913056,-4.35517931],"max":[2.18577766,0.691378772,-0.802375019]},{"bufferView":2,"byteOffset":336828,"componentType":5123,"count":4524,"type":"SCALAR"},{"bufferView":0,"byteOffset":796572,"componentType":5126,"count":6804,"type":"VEC3"},{"bufferView":1,"byteOffset":796572,"componentType":5126,"count":6804,"type":"VEC3","min":[0.0343192071,0.114281014,-4.35501337],"max":[2.20743918,0.692978799,-0.802537918]},{"bufferView":2,"byteOffset":345876,"componentType":5123,"count":29004,"type":"SCALAR"},{"bufferView":0,"byteOffset":878220,"componentType":5126,"count":1724,"type":"VEC3"},{"bufferView":1,"byteOffset":878220,"componentType":5126,"count":1724,"type":"VEC3","min":[0.0387857519,0.0408362076,-4.42872334],"max":[2.20297265,0.764983535,-0.730273068]},{"bufferView":2,"byteOffset":403884,"componentType":5123,"count":9444,"type":"SCALAR"},{"bufferView":0,"byteOffset":898908,"componentType":5126,"count":480,"type":"VEC3"},{"bufferView":1,"byteOffset":898908,"componentType":5126,"count":480,"type":"VEC3","min":[0.056309171,0.328941762,-4.13240623],"max":[2.18544936,0.482662171,-1.02078021]},{"bufferView":2,"byteOffset":422772,"componentType":5123,"count":1320,"type":"SCALAR"},{"bufferView":0,"byteOffset":904668,"componentType":5126,"count":550,"type":"VEC3"},{"bufferView":1,"byteOffset":904668,"componentType":5126,"count":550,"type":"VEC3","min":[0.793069243,0.816089332,-1.97029364],"max":[1.44011843,0.86731565,-1.76515496]},{"bufferView":2,"byteOffset":425412,"componentType":5123,"count":3204,"type":"SCALAR"},{"bufferView":0,"byteOffset":911268,"componentType":5126,"count":43,"type":"VEC3"},{"bufferView":1,"byteOffset":911268,"componentType":5126,"count":43,"type":"VEC3","min":[0.300119489,0.540927649,-0.522279382],"max":[1.94369876,0.617693245,-0.517018497]},{"bufferView":2,"byteOffset":431820,"componentType":5123,"count":162,"type":"SCALAR"},{"bufferView":0,"byteOffset":911784,"componentType":5126,"count":50,"type":"VEC3"},{"bufferView":1,"byteOffset":911784,"componentType":5126,"count":50,"type":"VEC3","min":[1.7876116,0.497409314,-0.580025196],"max":[1.95451188,0.687612414,-0.483121246]},{"bufferView":2,"byteOffset":432144,"componentType":5123,"count":204,"type":"SCALAR"}],"materials":[{"name":"plastic__env_50_1","pbrMetallicRoughness":{"baseColorFactor":[0,0,0,1],"metallicFactor":0.178035066,"roughnessFactor":0},"doubleSided":true},{"name":"emblem__spec_1","pbrMetallicRoughness":{"baseColorFactor":[0,0,0,1],"metallicFactor":0.123313509,"roughnessFactor":0.129393682},"doubleSided":true},{"name":"chassis__env_50_1","pbrMetallicRoughness":{"baseColorFactor":[0,0,0,1],"metallicFactor":0.44556269,"roughnessFactor":0},"doubleSided":true},{"name":"lights_red","pbrMetallicRoughness":{"baseColorFactor":[0.376471013,0,0,0.591486871],"roughnessFactor":0.930213511},"emissiveFactor":[0.383088708,0.0066345497,0.0066345497],"alphaMode":"BLEND","doubleSided":true},{"name":"body","pbrMetallicRoughness":{"baseColorFactor":[0.0925066471,0.0925066471,0.0925066471,1],"metallicFactor":0.0685919523,"roughnessFactor":0.0558631122},"doubleSided":true},{"name":"vehiclelights__s1","pbrMetallicRoughness":{"baseColorFactor":[0.921356022,0,0,1],"metallicFactor":0,"roughnessFactor":0.930213511},"emissiveFactor":[1,0,0],"doubleSided":true},{"name":"light__spec_1","pbrMetallicRoughness":{"baseColorFactor":[1,0.00509761507,0.00509761507,0.646208405],"metallicFactor":0.98061794,"roughnessFactor":0.930213511},"emissiveFactor":[1,0,0],"alphaMode":"BLEND","doubleSided":true},{"name":"chassis__spec_1","pbrMetallicRoughness":{"baseColorFactor":[0.0862744972,0.0862744972,0.0862744972,1],"metallicFactor":0.97453773,"roughnessFactor":0},"doubleSided":true},{"name":"Default_Material1","pbrMetallicRoughness":{"baseColorFactor":[0.247059003,0.247059003,0.247059003,1],"metallicFactor":0.901575685,"roughnessFactor":0},"doubleSided":true},{"name":"suspension_red","pbrMetallicRoughness":{"baseColorFactor":[1,0,0,1]},"doubleSided":true},{"name":"misc__spec_1","pbrMetallicRoughness":{"baseColorFactor":[1,0.0020548508,0.0020548508,1],"metallicFactor":0,"roughnessFactor":0.930213511},"doubleSided":true},{"name":"seatlogo__spec_1","pbrMetallicRoughness":{"baseColorFactor":[1,0,0,1],"metallicFactor":0.196275592,"roughnessFactor":0.930213511},"doubleSided":true},{"name":"steering__spec_1","pbrMetallicRoughness":{"baseColorFactor":[0.0141391344,0.0141391344,0.0141391344,1],"roughnessFactor":0.930213511},"doubleSided":true},{"name":"vehiclelights3","pbrMetallicRoughness":{"baseColorFactor":[0.498039007,0.498039007,0.498039007,1],"metallicFactor":0,"roughnessFactor":0.930213511},"doubleSided":true},{"name":"vehiclelights4","pbrMetallicRoughness":{"baseColorFactor":[0.911789,0.911789,0.911789,1],"metallicFactor":0,"roughnessFactor":0.930213511},"emissiveFactor":[0.902280092,0.902280092,0.902280092],"doubleSided":true},{"name":"vehiclelights2","pbrMetallicRoughness":{"metallicFactor":0.950217068,"roughnessFactor":0.930213511},"emissiveFactor":[1,1,1],"doubleSided":true},{"name":"mirror","pbrMetallicRoughness":{"roughnessFactor":0},"doubleSided":true},{"name":"brakedisk__spec_1","pbrMetallicRoughness":{"baseColorFactor":[0.757969737,0.757969737,0.757969737,1],"roughnessFactor":0},"doubleSided":true},{"name":"inner_rim1","pbrMetallicRoughness":{"baseColorFactor":[0.149020001,0.149020001,0.149020001,1],"metallicFactor":0.938056707,"roughnessFactor":0.10507299},"doubleSided":true},{"name":"rim1","pbrMetallicRoughness":{"baseColorFactor":[0.0611686781,0.0611686781,0.0611686781,1],"roughnessFactor":0},"doubleSided":true},{"name":"tire1","pbrMetallicRoughness":{"baseColorFactor":[0.00862624962,0.00862624962,0.00862624962,1],"roughnessFactor":0.930213511},"doubleSided":true},{"name":"chrome_rim1","pbrMetallicRoughness":{"baseColorFactor":[0.369269848,0.365668297,0.365668297,1],"roughnessFactor":0},"doubleSided":true},{"name":"MONO_logo","pbrMetallicRoughness":{"baseColorFactor":[1,0,0,1],"roughnessFactor":0.111153163},"doubleSided":true},{"name":"LightGray","pbrMetallicRoughness":{"baseColorFactor":[1,0.960208356,0,0.658368766],"roughnessFactor":0.930213511},"emissiveFactor":[1,0.218076348,0],"alphaMode":"BLEND","doubleSided":true},{"name":"vehiclelights1","pbrMetallicRoughness":{"roughnessFactor":0.930213511},"emissiveFactor":[1,1,1],"doubleSided":true}],"meshes":[{"primitives":[{"attributes":{"NORMAL":0,"POSITION":1},"mode":4,"indices":2,"material":0},{"attributes":{"NORMAL":3,"POSITION":4},"mode":4,"indices":5,"material":1},{"attributes":{"NORMAL":6,"POSITION":7},"mode":4,"indices":8,"material":2},{"attributes":{"NORMAL":9,"POSITION":10},"mode":4,"indices":11,"material":3},{"attributes":{"NORMAL":12,"POSITION":13},"mode":4,"indices":14,"material":4},{"attributes":{"NORMAL":15,"POSITION":16},"mode":4,"indices":17,"material":5},{"attributes":{"NORMAL":18,"POSITION":19},"mode":4,"indices":20,"material":6},{"attributes":{"NORMAL":21,"POSITION":22},"mode":4,"indices":23,"material":7},{"attributes":{"NORMAL":24,"POSITION":25},"mode":4,"indices":26,"material":8},{"attributes":{"NORMAL":27,"POSITION":28},"mode":4,"indices":29,"material":9},{"attributes":{"NORMAL":30,"POSITION":31},"mode":4,"indices":32,"material":10},{"attributes":{"NORMAL":33,"POSITION":34},"mode":4,"indices":35,"material":11},{"attributes":{"NORMAL":36,"POSITION":37},"mode":4,"indices":38,"material":12},{"attributes":{"NORMAL":39,"POSITION":40},"mode":4,"indices":41,"material":13},{"attributes":{"NORMAL":42,"POSITION":43},"mode":4,"indices":44,"material":14},{"attributes":{"NORMAL":45,"POSITION":46},"mode":4,"indices":47,"material":15},{"attributes":{"NORMAL":48,"POSITION":49},"mode":4,"indices":50,"material":16},{"attributes":{"NORMAL":51,"POSITION":52},"mode":4,"indices":53,"material":17},{"attributes":{"NORMAL":54,"POSITION":55},"mode":4,"indices":56,"material":18},{"attributes":{"NORMAL":57,"POSITION":58},"mode":4,"indices":59,"material":19},{"attributes":{"NORMAL":60,"POSITION":61},"mode":4,"indices":62,"material":20},{"attributes":{"NORMAL":63,"POSITION":64},"mode":4,"indices":65,"material":21},{"attributes":{"NORMAL":66,"POSITION":67},"mode":4,"indices":68,"material":22},{"attributes":{"NORMAL":69,"POSITION":70},"mode":4,"indices":71,"material":23},{"attributes":{"NORMAL":72,"POSITION":73},"mode":4,"indices":74,"material":24}]}],"nodes":[{"mesh":0}],"scenes":[{"nodes":[0]}],"scene":0}