{"buffers":[{"uri":"out.bin","byteLength":1344936}],"asset":{"version":"2.0","generator":"gltfpack 0.14","extras":{"author":"Emre Çınar (https://sketchfab.com/emrecnarr)","license":"CC-BY-4.0 (http://creativecommons.org/licenses/by/4.0/)","source":"https://sketchfab.com/3d-models/bac-mono-799dba7559e64b4c85764590c7197761","title":"Bac mono"}},"extensionsUsed":["KHR_mesh_quantization"],"extensionsRequired":["KHR_mesh_quantization"],"bufferViews":[{"buffer":0,"byteOffset":0,"byteLength":304128,"byteStride":4,"target":34962},{"buffer":0,"byteOffset":304128,"byteLength":608256,"byteStride":8,"target":34962},{"buffer":0,"byteOffset":912384,"byteLength":432552,"target":34963}],"accessors":[{"bufferView":0,"byteOffset":0,"componentType":5120,"count":20283,"type":"VEC3","normalized":true},{"bufferView":1,"byteOffset":0,"componentType":5123,"count":20283,"type":"VEC3","min":[15,373,83],"max":[7686,4525,16383]},{"bufferView":2,"byteOffset":0,"componentType":5123,"count":58659,"type":"SCALAR"},{"bufferView":0,"byteOffset":81132,"componentType":5120,"count":65,"type":"VEC3","normalized":true},{"bufferView":1,"byteOffset":162264,"componentType":5123,"count":65,"type":"VEC3","min":[1359,622,4287],"max":[6338,2787,7918]},{"bufferView":2,"byteOffset":117318,"componentType":5123,"count":147,"type":"SCALAR"},{"bufferView":0,"byteOffset":81392,"componentType":5120,"count":21630,"type":"VEC3","normalized":true},{"bufferView":1,"byteOffset":162784,"componentType":5123,"count":21630,"type":"VEC3","min":[256,389,314],"max":[7438,4354,16323]},{"bufferView":2,"byteOffset":117612,"componentType":5123,"count":53127,"type":"SCALAR"},{"bufferView":0,"byteOffset":167912,"componentType":5120,"count":81,"type":"VEC3","normalized":true},{"bufferView":1,"byteOffset":335824,"componentType":5123,"count":81,"type":"VEC3","min":[371,2570,696],"max":[7330,4343,5832]},{"bufferView":2,"byteOffset":223866,"componentType":5123,"count":285,"type":"SCALAR"},{"bufferView":0,"byteOffset":168236,"componentType":5120,"count":2495,"type":"VEC3","normalized":true},{"bufferView":1,"byteOffset":336472,"componentType":5123,"count":2495,"type":"VEC3","min":[646,499,1149],"max":[7055,4315,16373]},{"bufferView":2,"byteOffset":224436,"componentType":5123,"count":6990,"type":"SCALAR"},{"bufferView":0,"byteOffset":178216,"componentType":5120,"count":228,"type":"VEC3","normalized":true},{"bufferView":1,"byteOffset":356432,"componentType":5123,"count":228,"type":"VEC3","min":[550,1767,798],"max":[7151,2832,14779]},{"bufferView":2,"byteOffset":238416,"componentType":5123,"count":711,"type":"SCALAR"},{"bufferView":0,"byteOffset":179128,"componentType":5120,"count":140,"type":"VEC3","normalized":true},{"bufferView":1,"byteOffset":358256,"componentType":5123,"count":140,"type":"VEC3","min":[3753,1034,266],"max":[4217,4345,5843]},{"bufferView":2,"byteOffset":239838,"componentType":5123,"count":372,"type":"SCALAR"},{"bufferView":0,"byteOffset":179688,"componentType":5120,"count":13362,"type":"VEC3","normalized":true},{"bufferView":1,"byteOffset":359376,"componentType":5123,"count":13362,"type":"VEC3","min":[1439,414,48],"max":[6262,3287,7359]},{"bufferView":2,"byteOffset":240582,"componentType":5123,"count":31080,"type":"SCALAR"},{"bufferView":0,"byteOffset":233136,"componentType":5120,"count":256,"type":"VEC3","normalized":true},{"bufferView":1,"byteOffset":466272,"componentType":5123,"count":256,"type":"VEC3","min":[840,1542,46],"max":[6864,2804,14881]},{"bufferView":2,"byteOffset":302742,"componentType":5123,"count":849,"type":"SCALAR"},{"bufferView":0,"byteOffset":234160,"componentType":5120,"count":714,"type":"VEC3","normalized":true},{"bufferView":1,"byteOffset":468320,"componentType":5123,"count":714,"type":"VEC3","min":[2817,928,0],"max":[4884,2583,12357]},{"bufferView":2,"byteOffset":304440,"componentType":5123,"count":1797,"type":"SCALAR"},{"bufferView":0,"byteOffset":237016,"componentType":5120,"count":2479,"type":"VEC3","normalized":true},{"bufferView":1,"byteOffset":474032,"componentType":5123,"count":2479,"type":"VEC3","min":[2664,434,6281],"max":[5037,2543,13014]},{"bufferView":2,"byteOffset":308034,"componentType":5123,"count":5595,"type":"SCALAR"},{"bufferView":0,"byteOffset":246932,"componentType":5120,"count":24,"type":"VEC3","normalized":true},{"bufferView":1,"byteOffset":493864,"componentType":5123,"count":24,"type":"VEC3","min":[3557,3166,6503],"max":[4056,3413,6519]},{"bufferView":2,"byteOffset":319224,"componentType":5123,"count":54,"type":"SCALAR"},{"bufferView":0,"byteOffset":247028,"componentType":5120,"count":2396,"type":"VEC3","normalized":true},{"bufferView":1,"byteOffset":494056,"componentType":5123,"count":2396,"type":"VEC3","min":[3245,2057,8991],"max":[4456,2966,9455]},{"bufferView":2,"byteOffset":319332,"componentType":5123,"count":6564,"type":"SCALAR"},{"bufferView":0,"byteOffset":256612,"componentType":5120,"count":25,"type":"VEC3","normalized":true},{"bufferView":1,"byteOffset":513224,"componentType":5123,"count":25,"type":"VEC3","min":[1299,2582,874],"max":[1542,2832,1001]},{"bufferView":2,"byteOffset":332460,"componentType":5123,"count":72,"type":"SCALAR"},{"bufferView":0,"byteOffset":256712,"componentType":5120,"count":126,"type":"VEC3","normalized":true},{"bufferView":1,"byteOffset":513424,"componentType":5123,"count":126,"type":"VEC3","min":[3484,1034,266],"max":[6402,2832,1001]},{"bufferView":2,"byteOffset":332604,"componentType":5123,"count":366,"type":"SCALAR"},{"bufferView":0,"byteOffset":257216,"componentType":5120,"count":109,"type":"VEC3","normalized":true},{"bufferView":1,"byteOffset":514432,"componentType":5123,"count":109,"type":"VEC3","min":[903,1616,771],"max":[6421,2848,14918]},{"bufferView":2,"byteOffset":333336,"componentType":5123,"count":438,"type":"SCALAR"},{"bufferView":0,"byteOffset":257652,"componentType":5120,"count":64,"type":"VEC3","normalized":true},{"bufferView":1,"byteOffset":515304,"componentType":5123,"count":64,"type":"VEC3","min":[1252,3049,10393],"max":[6449,3337,10507]},{"bufferView":2,"byteOffset":334212,"componentType":5123,"count":204,"type":"SCALAR"},{"bufferView":0,"byteOffset":257908,"componentType":5120,"count":384,"type":"VEC3","normalized":true},{"bufferView":1,"byteOffset":515816,"componentType":5123,"count":384,"type":"VEC3","min":[474,672,1623],"max":[7220,1907,13381]},{"bufferView":2,"byteOffset":334620,"componentType":5123,"count":1104,"type":"SCALAR"},{"bufferView":0,"byteOffset":259444,"componentType":5120,"count":1520,"type":"VEC3","normalized":true},{"bufferView":1,"byteOffset":518888,"componentType":5123,"count":1520,"type":"VEC3","min":[77,266,1209],"max":[7617,2303,13787]},{"bufferView":2,"byteOffset":336828,"componentType":5123,"count":4524,"type":"SCALAR"},{"bufferView":0,"byteOffset":265524,"componentType":5120,"count":6804,"type":"VEC3","normalized":true},{"bufferView":1,"byteOffset":531048,"componentType":5123,"count":6804,"type":"VEC3","min":[0,260,1209],"max":[7694,2309,13787]},{"bufferView":2,"byteOffset":345876,"componentType":5123,"count":29004,"type":"SCALAR"},{"bufferView":0,"byteOffset":292740,"componentType":5120,"count":1724,"type":"VEC3","normalized":true},{"bufferView":1,"byteOffset":585480,"componentType":5123,"count":1724,"type":"VEC3","min":[16,0,948],"max":[7678,2564,14043]},{"bufferView":2,"byteOffset":403884,"componentType":5123,"count":9444,"type":"SCALAR"},{"bufferView":0,"byteOffset":299636,"componentType":5120,"count":480,"type":"VEC3","normalized":true},{"bufferView":1,"byteOffset":599272,"componentType":5123,"count":480,"type":"VEC3","min":[78,1020,1997],"max":[7616,1564,13014]},{"bufferView":2,"byteOffset":422772,"componentType":5123,"count":1320,"type":"SCALAR"},{"bufferView":0,"byteOffset":301556,"componentType":5120,"count":550,"type":"VEC3","normalized":true},{"bufferView":1,"byteOffset":603112,"componentType":5123,"count":550,"type":"VEC3","min":[2686,2745,9652],"max":[4977,2926,10379]},{"bufferView":2,"byteOffset":425412,"componentType":5123,"count":3204,"type":"SCALAR"},{"bufferView":0,"byteOffset":303756,"componentType":5120,"count":43,"type":"VEC3","normalized":true},{"bufferView":1,"byteOffset":607512,"componentType":5123,"count":43,"type":"VEC3","min":[941,1771,14779],"max":[6760,2042,14798]},{"bufferView":2,"byteOffset":431820,"componentType":5123,"count":162,"type":"SCALAR"},{"bufferView":0,"byteOffset":303928,"componentType":5120,"count":50,"type":"VEC3","normalized":true},{"bufferView":1,"byteOffset":607856,"componentType":5123,"count":50,"type":"VEC3","min":[6207,1616,14575],"max":[6798,2290,14918]},{"bufferView":2,"byteOffset":432144,"componentType":5123,"count":204,"type":"SCALAR"}],"materials":[{"name":"plastic__env_50_1","pbrMetallicRoughness":{"baseColorFactor":[0,0,0,1],"metallicFactor":0.178035066,"roughnessFactor":0},"doubleSided":true},{"name":"emblem__spec_1","pbrMetallicRoughness":{"baseColorFactor":[0,0,0,1],"metallicFactor":0.123313509,"roughnessFactor":0.129393682},"doubleSided":true},{"name":"chassis__env_50_1","pbrMetallicRoughness":{"baseColorFactor":[0,0,0,1],"metallicFactor":0.44556269,"roughnessFactor":0},"doubleSided":true},{"name":"lights_red","pbrMetallicRoughness":{"baseColorFactor":[0.376471013,0,0,0.591486871],"roughnessFactor":0.930213511},"emissiveFactor":[0.383088708,0.0066345497,0.0066345497],"alphaMode":"BLEND","doubleSided":true},{"name":"body","pbrMetallicRoughness":{"baseColorFactor":[0.0925066471,0.0925066471,0.0925066471,1],"metallicFactor":0.0685919523,"roughnessFactor":0.0558631122},"doubleSided":true},{"name":"vehiclelights__s1","pbrMetallicRoughness":{"baseColorFactor":[0.921356022,0,0,1],"metallicFactor":0,"roughnessFactor":0.930213511},"emissiveFactor":[1,0,0],"doubleSided":true},{"name":"light__spec_1","pbrMetallicRoughness":{"baseColorFactor":[1,0.00509761507,0.00509761507,0.646208405],"metallicFactor":0.98061794,"roughnessFactor":0.930213511},"emissiveFactor":[1,0,0],"alphaMode":"BLEND","doubleSided":true},{"name":"chassis__spec_1","pbrMetallicRoughness":{"baseColorFactor":[0.0862744972,0.0862744972,0.0862744972,1],"metallicFactor":0.97453773,"roughnessFactor":0},"doubleSided":true},{"name":"Default_Material1","pbrMetallicRoughness":{"baseColorFactor":[0.247059003,0.247059003,0.247059003,1],"metallicFactor":0.901575685,"roughnessFactor":0},"doubleSided":true},{"name":"suspension_red","pbrMetallicRoughness":{"baseColorFactor":[1,0,0,1]},"doubleSided":true},{"name":"misc__spec_1","pbrMetallicRoughness":{"baseColorFactor":[1,0.0020548508,0.0020548508,1],"metallicFactor":0,"roughnessFactor":0.930213511},"doubleSided":true},{"name":"seatlogo__spec_1","pbrMetallicRoughness":{"baseColorFactor":[1,0,0,1],"metallicFactor":0.196275592,"roughnessFactor":0.930213511},"doubleSided":true},{"name":"steering__spec_1","pbrMetallicRoughness":{"baseColorFactor":[0.0141391344,0.0141391344,0.0141391344,1],"roughnessFactor":0.930213511},"doubleSided":true},{"name":"vehiclelights3","pbrMetallicRoughness":{"baseColorFactor":[0.498039007,0.498039007,0.498039007,1],"metallicFactor":0,"roughnessFactor":0.930213511},"doubleSided":true},{"name":"vehiclelights4","pbrMetallicRoughness":{"baseColorFactor":[0.911789,0.911789,0.911789,1],"metallicFactor":0,"roughnessFactor":0.930213511},"emissiveFactor":[0.902280092,0.902280092,0.902280092],"doubleSided":true},{"name":"vehiclelights2","pbrMetallicRoughness":{"metallicFactor":0.950217068,"roughnessFactor":0.930213511},"emissiveFactor":[1,1,1],"doubleSided":true},{"name":"mirror","pbrMetallicRoughness":{"roughnessFactor":0},"doubleSided":true},{"name":"brakedisk__spec_1","pbrMetallicRoughness":{"baseColorFactor":[0.757969737,0.757969737,0.757969737,1],"roughnessFactor":0},"doubleSided":true},{"name":"inner_rim1","pbrMetallicRoughness":{"baseColorFactor":[0.149020001,0.149020001,0.149020001,1],"metallicFactor":0.938056707,"roughnessFactor":0.10507299},"doubleSided":true},{"name":"rim1","pbrMetallicRoughness":{"baseColorFactor":[0.0611686781,0.0611686781,0.0611686781,1],"roughnessFactor":0},"doubleSided":true},{"name":"tire1","pbrMetallicRoughness":{"baseColorFactor":[0.00862624962,0.00862624962,0.00862624962,1],"roughnessFactor":0.930213511},"doubleSided":true},{"name":"chrome_rim1","pbrMetallicRoughness":{"baseColorFactor":[0.369269848,0.365668297,0.365668297,1],"roughnessFactor":0},"doubleSided":true},{"name":"MONO_logo","pbrMetallicRoughness":{"baseColorFactor":[1,0,0,1],"roughnessFactor":0.111153163},"doubleSided":true},{"name":"LightGray","pbrMetallicRoughness":{"baseColorFactor":[1,0.960208356,0,0.658368766],"roughnessFactor":0.930213511},"emissiveFactor":[1,0.218076348,0],"alphaMode":"BLEND","doubleSided":true},{"name":"vehiclelights1","pbrMetallicRoughness":{"roughnessFactor":0.930213511},"emissiveFactor":[1,1,1],"doubleSided":true}],"meshes":[{"primitives":[{"attributes":{"NORMAL":0,"POSITION":1},"mode":4,"indices":2,"material":0},{"attributes":{"NORMAL":3,"POSITION":4},"mode":4,"indices":5,"material":1},{"attributes":{"NORMAL":6,"POSITION":7},"mode":4,"indices":8,"material":2},{"attributes":{"NORMAL":9,"POSITION":10},"mode":4,"indices":11,"material":3},{"attributes":{"NORMAL":12,"POSITION":13},"mode":4,"indices":14,"material":4},{"attributes":{"NORMAL":15,"POSITION":16},"mode":4,"indices":17,"material":5},{"attributes":{"NORMAL":18,"POSITION":19},"mode":4,"indices":20,"material":6},{"attributes":{"NORMAL":21,"POSITION":22},"mode":4,"indices":23,"material":7},{"attributes":{"NORMAL":24,"POSITION":25},"mode":4,"indices":26,"material":8},{"attributes":{"NORMAL":27,"POSITION":28},"mode":4,"indices":29,"material":9},{"attributes":{"NORMAL":30,"POSITION":31},"mode":4,"indices":32,"material":10},{"attributes":{"NORMAL":33,"POSITION":34},"mode":4,"indices":35,"material":11},{"attributes":{"NORMAL":36,"POSITION":37},"mode":4,"indices":38,"material":12},{"attributes":{"NORMAL":39,"POSITION":40},"mode":4,"indices":41,"material":13},{"attributes":{"NORMAL":42,"POSITION":43},"mode":4,"indices":44,"material":14},{"attributes":{"NORMAL":45,"POSITION":46},"mode":4,"indices":47,"material":15},{"attributes":{"NORMAL":48,"POSITION":49},"mode":4,"indices":50,"material":16},{"attributes":{"NORMAL":51,"POSITION":52},"mode":4,"indices":53,"material":17},{"attributes":{"NORMAL":54,"POSITION":55},"mode":4,"indices":56,"material":18},{"attributes":{"NORMAL":57,"POSITION":58},"mode":4,"indices":59,"material":19},{"attributes":{"NORMAL":60,"POSITION":61},"mode":4,"indices":62,"material":20},{"attributes":{"NORMAL":63,"POSITION":64},"mode":4,"indices":65,"material":21},{"attributes":{"NORMAL":66,"POSITION":67},"mode":4,"indices":68,"material":22},{"attributes":{"NORMAL":69,"POSITION":70},"mode":4,"indices":71,"material":23},{"attributes":{"NORMAL":72,"POSITION":73},"mode":4,"indices":74,"material":24}]}],"nodes":[{"mesh":0,"translation":[0.0343192071,0.0408362076,-4.69658947],"scale":[0.000282447494,0.000282447494,0.000282447494]}],"scenes":[{"nodes":[0]}],"scene":0}