{"buffers":[{"uri":"testaa.bin","byteLength":244248}],"asset":{"version":"2.0","generator":"gltfpack 0.14"},"extensionsUsed":["KHR_materials_pbrSpecularGlossiness"],"bufferViews":[{"buffer":0,"byteOffset":0,"byteLength":34296,"byteStride":8,"target":34962},{"buffer":0,"byteOffset":34296,"byteLength":51444,"byteStride":12,"target":34962},{"buffer":0,"byteOffset":85740,"byteLength":68592,"byteStride":16,"target":34962},{"buffer":0,"byteOffset":154332,"byteLength":51444,"byteStride":12,"target":34962},{"buffer":0,"byteOffset":205776,"byteLength":38472,"target":34963}],"accessors":[{"bufferView":0,"byteOffset":0,"componentType":5126,"count":4287,"type":"VEC2"},{"bufferView":1,"byteOffset":0,"componentType":5126,"count":4287,"type":"VEC3"},{"bufferView":2,"byteOffset":0,"componentType":5126,"count":4287,"type":"VEC4"},{"bufferView":3,"byteOffset":0,"componentType":5126,"count":4287,"type":"VEC3","min":[-0.019474864,1.19209287e-09,-0.019474864],"max":[0.0194748752,0.0578398444,0.0194748677]},{"bufferView":4,"byteOffset":0,"componentType":5123,"count":19236,"type":"SCALAR"}],"images":[{"uri":"Corset_baseColor.png"},{"uri":"Corset_roughnessMetallic.png"},{"uri":"Corset_normal.png"},{"uri":"Corset_occlusion.png"},{"uri":"Corset_diffuse.png"},{"uri":"Corset_specularGlossiness.png"}],"textures":[{"source":0},{"source":1},{"source":2},{"source":3},{"source":4},{"source":5}],"materials":[{"name":"Corset_O","pbrMetallicRoughness":{"baseColorTexture":{"index":0,"texCoord":0},"metallicRoughnessTexture":{"index":1,"texCoord":0}},"normalTexture":{"index":2,"texCoord":0},"occlusionTexture":{"index":3,"texCoord":0},"extensions":{"KHR_materials_pbrSpecularGlossiness":{"diffuseTexture":{"index":4,"texCoord":0},"specularGlossinessTexture":{"index":5,"texCoord":0}}}}],"meshes":[{"primitives":[{"attributes":{"TEXCOORD_0":0,"NORMAL":1,"TANGENT":2,"POSITION":3},"mode":4,"indices":4,"material":0}]}],"nodes":[{"mesh":0}],"scenes":[{"nodes":[0]}],"scene":0}