{"buffers":[{"uri":"test03.bin","byteLength":6471452}],"asset":{"version":"2.0","generator":"gltfpack 0.14"},"extensionsUsed":["KHR_materials_pbrSpecularGlossiness"],"bufferViews":[{"buffer":0,"byteOffset":0,"byteLength":2411040,"byteStride":12,"target":34962},{"buffer":0,"byteOffset":2411040,"byteLength":2411040,"byteStride":12,"target":34962},{"buffer":0,"byteOffset":4822080,"byteLength":673554,"target":34963},{"buffer":0,"byteOffset":5495636,"byteLength":975816,"target":34963}],"accessors":[{"bufferView":0,"byteOffset":0,"componentType":5126,"count":12461,"type":"VEC3"},{"bufferView":1,"byteOffset":0,"componentType":5126,"count":12461,"type":"VEC3","min":[-19.4200001,-10.875,-63.0442581],"max":[67.6200027,66.0368729,55.0442581]},{"bufferView":2,"byteOffset":0,"componentType":5123,"count":36183,"type":"SCALAR"},{"bufferView":0,"byteOffset":149532,"componentType":5126,"count":87372,"type":"VEC3"},{"bufferView":1,"byteOffset":149532,"componentType":5126,"count":87372,"type":"VEC3","min":[-15.9700003,-5.79999971,-51.9999962],"max":[64.1699982,78.125,96.2389984]},{"bufferView":3,"byteOffset":0,"componentType":5125,"count":243954,"type":"SCALAR"},{"bufferView":0,"byteOffset":1197996,"componentType":5126,"count":9790,"type":"VEC3"},{"bufferView":1,"byteOffset":1197996,"componentType":5126,"count":9790,"type":"VEC3","min":[-16.5699997,-4.375,-56.5500031],"max":[64.7700043,68.6611786,80.8499985]},{"bufferView":2,"byteOffset":72366,"componentType":5123,"count":30846,"type":"SCALAR"},{"bufferView":0,"byteOffset":1315476,"componentType":5126,"count":44588,"type":"VEC3"},{"bufferView":1,"byteOffset":1315476,"componentType":5126,"count":44588,"type":"VEC3","min":[-15.9799995,-4.80000019,-60],"max":[64.0200043,78.125,92.5590973]},{"bufferView":2,"byteOffset":134058,"componentType":5123,"count":133545,"type":"SCALAR"},{"bufferView":0,"byteOffset":1850532,"componentType":5126,"count":2461,"type":"VEC3"},{"bufferView":1,"byteOffset":1850532,"componentType":5126,"count":2461,"type":"VEC3","min":[-6.30000591,-1.59999847,-60],"max":[54.4999962,68.9847412,59.9249992]},{"bufferView":2,"byteOffset":401148,"componentType":5123,"count":6969,"type":"SCALAR"},{"bufferView":0,"byteOffset":1880064,"componentType":5126,"count":26727,"type":"VEC3"},{"bufferView":1,"byteOffset":1880064,"componentType":5126,"count":26727,"type":"VEC3","min":[-7.9000001,-3.20000029,-28],"max":[56.0999985,66.0781555,94.0525208]},{"bufferView":2,"byteOffset":415086,"componentType":5123,"count":78516,"type":"SCALAR"},{"bufferView":0,"byteOffset":2200788,"componentType":5126,"count":14072,"type":"VEC3"},{"bufferView":1,"byteOffset":2200788,"componentType":5126,"count":14072,"type":"VEC3","min":[0.0999999046,-4.80000019,-60],"max":[50.2123032,61.4558792,76]},{"bufferView":2,"byteOffset":572118,"componentType":5123,"count":40854,"type":"SCALAR"},{"bufferView":0,"byteOffset":2369652,"componentType":5126,"count":1113,"type":"VEC3"},{"bufferView":1,"byteOffset":2369652,"componentType":5126,"count":1113,"type":"VEC3","min":[0.0999999046,40,-12],"max":[48.0999985,45,4]},{"bufferView":2,"byteOffset":653826,"componentType":5123,"count":3171,"type":"SCALAR"},{"bufferView":0,"byteOffset":2383008,"componentType":5126,"count":2082,"type":"VEC3"},{"bufferView":1,"byteOffset":2383008,"componentType":5126,"count":2082,"type":"VEC3","min":[8.10000038,46.4000015,-44],"max":[40.0999985,62.4000015,4]},{"bufferView":2,"byteOffset":660168,"componentType":5123,"count":5934,"type":"SCALAR"},{"bufferView":0,"byteOffset":2407992,"componentType":5126,"count":254,"type":"VEC3"},{"bufferView":1,"byteOffset":2407992,"componentType":5126,"count":254,"type":"VEC3","min":[20.8999996,27.2000008,-55.2000008],"max":[27.3000011,112.675003,-48.7999992]},{"bufferView":2,"byteOffset":672036,"componentType":5123,"count":759,"type":"SCALAR"}],"materials":[{"name":"Material_27","pbrMetallicRoughness":{"baseColorFactor":[0.539986014,0.249989003,0.249989003,1],"metallicFactor":0},"extensions":{"KHR_materials_pbrSpecularGlossiness":{"diffuseFactor":[0.539986014,0.249989003,0.249989003,1],"specularFactor":[0.800000012,0.800000012,0.800000012]}}},{"name":"Material_25","pbrMetallicRoughness":{"baseColorFactor":[0.400137007,0.400137007,0.400137007,1],"metallicFactor":0},"extensions":{"KHR_materials_pbrSpecularGlossiness":{"diffuseFactor":[0.400137007,0.400137007,0.400137007,1],"specularFactor":[0.800000012,0.800000012,0.800000012]}}},{"name":"Material_22","pbrMetallicRoughness":{"metallicFactor":0},"extensions":{"KHR_materials_pbrSpecularGlossiness":{"specularFactor":[0.800000012,0.800000012,0.800000012]}}},{"name":"Material_20","pbrMetallicRoughness":{"baseColorFactor":[0,1,0,1],"metallicFactor":0},"extensions":{"KHR_materials_pbrSpecularGlossiness":{"diffuseFactor":[0,1,0,1],"specularFactor":[0.800000012,0.800000012,0.800000012]}}},{"name":"Material_26","pbrMetallicRoughness":{"baseColorFactor":[1,0,0,1],"metallicFactor":0},"extensions":{"KHR_materials_pbrSpecularGlossiness":{"diffuseFactor":[1,0,0,1],"specularFactor":[0.800000012,0.800000012,0.800000012]}}},{"name":"Material_24","pbrMetallicRoughness":{"baseColorFactor":[1,1,0,1],"metallicFactor":0},"extensions":{"KHR_materials_pbrSpecularGlossiness":{"diffuseFactor":[1,1,0,1],"specularFactor":[0.800000012,0.800000012,0.800000012]}}},{"name":"Material_23","pbrMetallicRoughness":{"baseColorFactor":[0,0,1,1],"metallicFactor":0},"extensions":{"KHR_materials_pbrSpecularGlossiness":{"diffuseFactor":[0,0,1,1],"specularFactor":[0.800000012,0.800000012,0.800000012]}}},{"name":"Material_21","pbrMetallicRoughness":{"baseColorFactor":[1,0.399785995,0.399785995,1],"metallicFactor":0},"extensions":{"KHR_materials_pbrSpecularGlossiness":{"diffuseFactor":[1,0.399785995,0.399785995,1],"specularFactor":[0.800000012,0.800000012,0.800000012]}}},{"name":"Material_28","pbrMetallicRoughness":{"baseColorFactor":[1,0.499992013,0,1],"metallicFactor":0},"extensions":{"KHR_materials_pbrSpecularGlossiness":{"diffuseFactor":[1,0.499992013,0,1],"specularFactor":[0.800000012,0.800000012,0.800000012]}}},{"name":"Material_29","pbrMetallicRoughness":{"baseColorFactor":[0,1,1,1],"metallicFactor":0},"extensions":{"KHR_materials_pbrSpecularGlossiness":{"diffuseFactor":[0,1,1,1],"specularFactor":[0.800000012,0.800000012,0.800000012]}}}],"meshes":[{"primitives":[{"attributes":{"NORMAL":0,"POSITION":1},"mode":4,"indices":2,"material":0},{"attributes":{"NORMAL":3,"POSITION":4},"mode":4,"indices":5,"material":1},{"attributes":{"NORMAL":6,"POSITION":7},"mode":4,"indices":8,"material":2},{"attributes":{"NORMAL":9,"POSITION":10},"mode":4,"indices":11,"material":3},{"attributes":{"NORMAL":12,"POSITION":13},"mode":4,"indices":14,"material":4},{"attributes":{"NORMAL":15,"POSITION":16},"mode":4,"indices":17,"material":5},{"attributes":{"NORMAL":18,"POSITION":19},"mode":4,"indices":20,"material":6},{"attributes":{"NORMAL":21,"POSITION":22},"mode":4,"indices":23,"material":7},{"attributes":{"NORMAL":24,"POSITION":25},"mode":4,"indices":26,"material":8},{"attributes":{"NORMAL":27,"POSITION":28},"mode":4,"indices":29,"material":9}]}],"nodes":[{"mesh":0},{"matrix":[0.707106769,-2.01750495e-07,-0.707106769,0,-0.331294328,0.883452296,-0.331294596,0,0.624695182,0.468521118,0.624695063,0,336.347717,258.205475,330.271118,1],"camera":0}],"scenes":[{"nodes":[0,1]}],"cameras":[{"type":"perspective","perspective":{"yfov":0.266482562,"znear":0.049999997,"aspectRatio":1,"zfar":1000000}}],"scene":0}