{"buffers":[{"uri":"output.bin","byteLength":662184}],"asset":{"version":"2.0","generator":"gltfpack 0.14"},"extensionsUsed":["KHR_materials_pbrSpecularGlossiness"],"bufferViews":[{"buffer":0,"byteOffset":0,"byteLength":92040,"byteStride":8,"target":34962},{"buffer":0,"byteOffset":92040,"byteLength":138060,"byteStride":12,"target":34962},{"buffer":0,"byteOffset":230100,"byteLength":184080,"byteStride":16,"target":34962},{"buffer":0,"byteOffset":414180,"byteLength":138060,"byteStride":12,"target":34962},{"buffer":0,"byteOffset":552240,"byteLength":109944,"target":34963}],"accessors":[{"bufferView":0,"byteOffset":0,"componentType":5126,"count":11505,"type":"VEC2"},{"bufferView":1,"byteOffset":0,"componentType":5126,"count":11505,"type":"VEC3"},{"bufferView":2,"byteOffset":0,"componentType":5126,"count":11505,"type":"VEC4"},{"bufferView":3,"byteOffset":0,"componentType":5126,"count":11505,"type":"VEC3","min":[-0.019474864,0,-0.019474864],"max":[0.0194748752,0.0578415282,0.0194748677]},{"bufferView":4,"byteOffset":0,"componentType":5123,"count":54972,"type":"SCALAR"}],"images":[{"uri":"Corset_baseColor.png"},{"uri":"Corset_roughnessMetallic.png"},{"uri":"Corset_normal.png"},{"uri":"Corset_occlusion.png"},{"uri":"Corset_diffuse.png"},{"uri":"Corset_specularGlossiness.png"}],"textures":[{"source":0},{"source":1},{"source":2},{"source":3},{"source":4},{"source":5}],"materials":[{"name":"Corset_O","pbrMetallicRoughness":{"baseColorTexture":{"index":0,"texCoord":0},"metallicRoughnessTexture":{"index":1,"texCoord":0}},"normalTexture":{"index":2,"texCoord":0},"occlusionTexture":{"index":3,"texCoord":0},"extensions":{"KHR_materials_pbrSpecularGlossiness":{"diffuseTexture":{"index":4,"texCoord":0},"specularGlossinessTexture":{"index":5,"texCoord":0}}}}],"meshes":[{"primitives":[{"attributes":{"TEXCOORD_0":0,"NORMAL":1,"TANGENT":2,"POSITION":3},"mode":4,"indices":4,"material":0}]}],"nodes":[{"mesh":0}],"scenes":[{"nodes":[0]}],"scene":0}