{"buffers":[{"uri":"output.bin","byteLength":152816}],"asset":{"version":"2.0","generator":"gltfpack 0.14"},"bufferViews":[{"buffer":0,"byteOffset":0,"byteLength":58764,"byteStride":12,"target":34962},{"buffer":0,"byteOffset":58764,"byteLength":58764,"byteStride":12,"target":34962},{"buffer":0,"byteOffset":117528,"byteLength":35286,"target":34963}],"accessors":[{"bufferView":0,"byteOffset":0,"componentType":5126,"count":4897,"type":"VEC3","min":[-1.12869692,0.000407211483,-0.964485109],"max":[1.12806153,4.43007708,0.685356915]},{"bufferView":1,"byteOffset":0,"componentType":5126,"count":4897,"type":"VEC3"},{"bufferView":2,"byteOffset":0,"componentType":5123,"count":17643,"type":"SCALAR"}],"meshes":[{"primitives":[{"attributes":{"POSITION":0,"NORMAL":1},"mode":4,"indices":2}]}],"nodes":[{"mesh":0}],"scenes":[{"nodes":[0]}],"scene":0}